                                                                        S      1
,,,12Htapa_cuboLed,22HAutodesk Inventor 2021,7Hunknown,32,38,7,99,15,,  G      1
1.,2,2HMM,1,0.08,15H20220613.115139,0.01,10000.,4HDell,,11,0,15H20220613G      2
.000000;                                                                G      3
     186       1                                                00000000D      1
     186            -199       1       0                               0D      2
     514       2                                                00010000D      3
     514                       2       1                               0D      4
     510       4                                                00010000D      5
     510            -199       1       1                               0D      6
     510       5                                                00010000D      7
     510            -199       1       1                               0D      8
     510       6                                                00010000D      9
     510            -199       1       1                               0D     10
     510       7                                                00010000D     11
     510            -199       1       1                               0D     12
     510       8                                                00010000D     13
     510            -199       1       1                               0D     14
     510       9                                                00010000D     15
     510            -199       1       1                               0D     16
     510      10                                                00010000D     17
     510            -199       1       1                               0D     18
     510      11                                                00010000D     19
     510            -199       1       1                               0D     20
     510      12                                                00010000D     21
     510            -199       1       1                               0D     22
     510      13                                                00010000D     23
     510            -199       1       1                               0D     24
     510      14                                                00010000D     25
     510            -199       1       1                               0D     26
     510      15                                                00010000D     27
     510            -199       1       1                               0D     28
     510      16                                                00010000D     29
     510            -199       1       1                               0D     30
     510      17                                                00010000D     31
     510            -199       1       1                               0D     32
     510      18                                                00010000D     33
     510            -199       1       1                               0D     34
     508      19                                                00010000D     35
     508                       1       1                               0D     36
     508      20                                                00010000D     37
     508                       1       1                               0D     38
     508      21                                                00010000D     39
     508                       1       1                               0D     40
     508      22                                                00010000D     41
     508                       1       1                               0D     42
     508      23                                                00010000D     43
     508                       1       1                               0D     44
     508      24                                                00010000D     45
     508                       1       1                               0D     46
     508      25                                                00010000D     47
     508                       1       1                               0D     48
     508      26                                                00010000D     49
     508                       1       1                               0D     50
     508      27                                                00010000D     51
     508                       2       1                               0D     52
     508      29                                                00010000D     53
     508                       2       1                               0D     54
     508      31                                                00010000D     55
     508                       2       1                               0D     56
     508      33                                                00010000D     57
     508                       2       1                               0D     58
     508      35                                                00010000D     59
     508                       1       1                               0D     60
     508      36                                                00010000D     61
     508                       1       1                               0D     62
     508      37                                                00010000D     63
     508                       1       1                               0D     64
     508      38                                                00010000D     65
     508                       1       1                               0D     66
     508      39                                                00010000D     67
     508                       1       1                               0D     68
     508      40                                                00010000D     69
     508                       1       1                               0D     70
     508      41                                                00010000D     71
     508                       1       1                               0D     72
     508      42                                                00010000D     73
     508                       1       1                               0D     74
     508      43                                                00010000D     75
     508                       1       1                               0D     76
     508      44                                                00010000D     77
     508                       1       1                               0D     78
     508      45                                                00010000D     79
     508                       1       1                               0D     80
     508      46                                                00010000D     81
     508                       1       1                               0D     82
     126      47                                                00010000D     83
     126       0               2       0                               0D     84
     126      49                                                00010000D     85
     126       0               2       0                               0D     86
     126      51                                                00010000D     87
     126       0               2       0                               0D     88
     126      53                                                00010000D     89
     126       0               2       0                               0D     90
     126      55                                                00010000D     91
     126       0               2       0                               0D     92
     126      57                                                00010000D     93
     126       0               2       0                               0D     94
     126      59                                                00010000D     95
     126       0               2       0                               0D     96
     126      61                                                00010000D     97
     126       0               2       0                               0D     98
     126      63                                                00010000D     99
     126       0               2       0                               0D    100
     126      65                                                00010000D    101
     126       0               2       0                               0D    102
     126      67                                                00010000D    103
     126       0               2       0                               0D    104
     126      69                                                00010000D    105
     126       0               2       0                               0D    106
     126      71                                                00010000D    107
     126       0               2       0                               0D    108
     126      73                                                00010000D    109
     126       0               2       0                               0D    110
     126      75                                                00010000D    111
     126       0               2       0                               0D    112
     126      77                                                00010000D    113
     126       0               2       0                               0D    114
     126      79                                                00010000D    115
     126       0               2       0                               0D    116
     126      81                                                00010000D    117
     126       0               2       0                               0D    118
     126      83                                                00010000D    119
     126       0               2       0                               0D    120
     126      85                                                00010000D    121
     126       0               2       0                               0D    122
     126      87                                                00010000D    123
     126       0               2       0                               0D    124
     126      89                                                00010000D    125
     126       0               7       0                               0D    126
     126      96                                                00010000D    127
     126       0               8       0                               0D    128
     126     104                                                00010000D    129
     126       0               5       0                               0D    130
     126     109                                                00010000D    131
     126       0              12       0                               0D    132
     126     121                                                00010000D    133
     126       0               7       0                               0D    134
     126     128                                                00010000D    135
     126       0               8       0                               0D    136
     126     136                                                00010000D    137
     126       0               5       0                               0D    138
     126     141                                                00010000D    139
     126       0              12       0                               0D    140
     126     153                                                00010000D    141
     126       0               7       0                               0D    142
     126     160                                                00010000D    143
     126       0               8       0                               0D    144
     126     168                                                00010000D    145
     126       0               5       0                               0D    146
     126     173                                                00010000D    147
     126       0              12       0                               0D    148
     126     185                                                00010000D    149
     126       0               7       0                               0D    150
     126     192                                                00010000D    151
     126       0               8       0                               0D    152
     126     200                                                00010000D    153
     126       0               5       0                               0D    154
     126     205                                                00010000D    155
     126       0              12       0                               0D    156
     126     217                                                00010000D    157
     126       0               2       0                               0D    158
     126     219                                                00010000D    159
     126       0               2       0                               0D    160
     126     221                                                00010000D    161
     126       0               2       0                               0D    162
     128     223                                                00010000D    163
     128       0    -199       3       0                               0D    164
     128     226                                                00010000D    165
     128       0    -199       3       0                               0D    166
     128     229                                                00010000D    167
     128       0    -199       4       0                               0D    168
     128     233                                                00010000D    169
     128       0    -199       4       0                               0D    170
     128     237                                                00010000D    171
     128       0    -199       4       0                               0D    172
     128     241                                                00010000D    173
     128       0    -199       4       0                               0D    174
     128     245                                                00010000D    175
     128       0    -199       3       0                               0D    176
     128     248                                                00010000D    177
     128       0    -199      27       0                               0D    178
     128     275                                                00010000D    179
     128       0    -199      27       0                               0D    180
     128     302                                                00010000D    181
     128       0    -199      27       0                               0D    182
     128     329                                                00010000D    183
     128       0    -199      27       0                               0D    184
     128     356                                                00010000D    185
     128       0    -199       3       0                               0D    186
     128     359                                                00010000D    187
     128       0    -199       3       0                               0D    188
     128     362                                                00010000D    189
     128       0    -199       4       0                               0D    190
     128     366                                                00010000D    191
     128       0    -199       4       0                               0D    192
     502     370                                                00010000D    193
     502                      14       1                               0D    194
     504     384                                                00010001D    195
     504                      11       1                               0D    196
     406     395                                                00000000D    197
     406                       1      15                               0D    198
     314     396                                                00000200D    199
     314                       1       0                               0D    200
186,3,1,0,0,1,197;                                                     1P      1
514,15,5,1,7,1,9,1,11,1,13,1,15,1,17,1,19,1,21,1,23,1,25,1,27,1,       3P      2
29,1,31,1,33,1;                                                        3P      3
510,163,1,1,35;                                                        5P      4
510,165,1,1,37;                                                        7P      5
510,167,1,1,39;                                                        9P      6
510,169,1,1,41;                                                       11P      7
510,171,2,1,43,45;                                                    13P      8
510,173,1,1,47;                                                       15P      9
510,175,1,1,49;                                                       17P     10
510,177,1,1,51;                                                       19P     11
510,179,1,1,53;                                                       21P     12
510,181,1,1,55;                                                       23P     13
510,183,1,1,57;                                                       25P     14
510,185,1,1,59;                                                       27P     15
510,187,1,1,61;                                                       29P     16
510,189,5,1,63,65,67,69,71;                                           31P     17
510,191,5,1,73,75,77,79,81;                                           33P     18
508,4,0,195,1,0,0,0,195,2,1,0,0,195,3,1,0,0,195,4,0,0;                35P     19
508,4,0,195,5,0,0,0,195,6,1,0,0,195,7,1,0,0,195,2,0,0;                37P     20
508,4,0,195,8,0,0,0,195,9,1,0,0,195,10,1,0,0,195,6,0,0;               39P     21
508,4,0,195,11,0,0,0,195,4,1,0,0,195,12,1,0,0,195,9,0,0;              41P     22
508,4,0,195,13,0,0,0,195,14,0,0,0,195,15,0,0,0,195,16,0,0;            43P     23
508,4,0,195,12,0,0,0,195,3,0,0,0,195,7,0,0,0,195,10,0,0;              45P     24
508,4,0,195,14,1,0,0,195,17,0,0,0,195,18,1,0,0,195,19,1,0;            47P     25
508,4,0,195,13,1,0,0,195,20,0,0,0,195,21,1,0,0,195,17,1,0;            49P     26
508,5,0,195,22,0,0,0,195,23,0,0,0,195,24,1,0,0,195,25,0,0,0,195,      51P     27
24,0,0;                                                               51P     28
508,5,0,195,26,0,0,0,195,27,0,0,0,195,28,1,0,0,195,29,0,0,0,195,      53P     29
28,0,0;                                                               53P     30
508,5,0,195,30,0,0,0,195,31,0,0,0,195,32,1,0,0,195,33,0,0,0,195,      55P     31
32,0,0;                                                               55P     32
508,5,0,195,34,0,0,0,195,35,0,0,0,195,36,1,0,0,195,37,0,0,0,195,      57P     33
36,0,0;                                                               57P     34
508,4,0,195,16,1,0,0,195,38,0,0,0,195,39,1,0,0,195,20,1,0;            59P     35
508,4,0,195,15,1,0,0,195,19,0,0,0,195,40,1,0,0,195,38,1,0;            61P     36
508,4,0,195,1,1,0,0,195,11,1,0,0,195,8,1,0,0,195,5,1,0;               63P     37
508,2,0,195,22,1,0,0,195,23,1,0;                                      65P     38
508,2,0,195,26,1,0,0,195,27,1,0;                                      67P     39
508,2,0,195,30,1,0,0,195,31,1,0;                                      69P     40
508,2,0,195,34,1,0,0,195,35,1,0;                                      71P     41
508,4,0,195,18,0,0,0,195,21,0,0,0,195,39,0,0,0,195,40,0,0;            73P     42
508,1,0,195,25,1,0;                                                   75P     43
508,1,0,195,29,1,0;                                                   77P     44
508,1,0,195,33,1,0;                                                   79P     45
508,1,0,195,37,1,0;                                                   81P     46
126,1,1,0,0,1,0,-5.075,-5.075,15.225,15.225,1.,1.,101.5,5.,           83P     47
101.5,101.5,5.,-101.5,-5.075,15.225,0.,0.,0.;                         83P     48
126,1,1,0,0,1,0,0.,0.,0.3,0.3,1.,1.,101.5,5.,101.5,101.5,2.,          85P     49
101.5,0.,0.3,0.,0.,0.;                                                85P     50
126,1,1,0,0,1,0,-20.3,-20.3,0.,0.,1.,1.,101.5,2.,101.5,101.5,2.,      87P     51
-101.5,-20.3,0.,0.,0.,0.;                                             87P     52
126,1,1,0,0,1,0,0.,0.,0.3,0.3,1.,1.,101.5,5.,-101.5,101.5,2.,         89P     53
-101.5,0.,0.3,0.,0.,0.;                                               89P     54
126,1,1,0,0,1,0,-5.075,-5.075,15.225,15.225,1.,1.,-101.5,5.,          91P     55
101.5,101.5,5.,101.5,-5.075,15.225,0.,0.,0.;                          91P     56
126,1,1,0,0,1,0,0.,0.,0.3,0.3,1.,1.,-101.5,5.,101.5,-101.5,2.,        93P     57
101.5,0.,0.3,0.,0.,0.;                                                93P     58
126,1,1,0,0,1,0,-20.3,-20.3,0.,0.,1.,1.,-101.5,2.,101.5,101.5,        95P     59
2.,101.5,-20.3,0.,0.,0.,0.;                                           95P     60
126,1,1,0,0,1,0,-5.075,-5.075,15.225,15.225,1.,1.,-101.5,5.,          97P     61
-101.5,-101.5,5.,101.5,-5.075,15.225,0.,0.,0.;                        97P     62
126,1,1,0,0,1,0,0.,0.,0.3,0.3,1.,1.,-101.5,5.,-101.5,-101.5,2.,       99P     63
-101.5,0.,0.3,0.,0.,0.;                                               99P     64
126,1,1,0,0,1,0,-20.3,-20.3,0.,0.,1.,1.,-101.5,2.,-101.5,-101.5,     101P     65
2.,101.5,-20.3,0.,0.,0.,0.;                                          101P     66
126,1,1,0,0,1,0,-5.075,-5.075,15.225,15.225,1.,1.,101.5,5.,          103P     67
-101.5,-101.5,5.,-101.5,-5.075,15.225,0.,0.,0.;                      103P     68
126,1,1,0,0,1,0,-20.3,-20.3,0.,0.,1.,1.,101.5,2.,-101.5,-101.5,      105P     69
2.,-101.5,-20.3,0.,0.,0.,0.;                                         105P     70
126,1,1,0,0,1,0,-15.45,-15.45,5.15,5.15,1.,1.,103.,2.,-103.,         107P     71
103.,2.,103.,-15.45,5.15,0.,0.,0.;                                   107P     72
126,1,1,0,0,1,0,-15.45,-15.45,5.15,5.15,1.,1.,-103.,2.,-103.,        109P     73
103.,2.,-103.,-15.45,5.15,0.,0.,0.;                                  109P     74
126,1,1,0,0,1,0,-15.45,-15.45,5.15,5.15,1.,1.,-103.,2.,103.,         111P     75
-103.,2.,-103.,-15.45,5.15,0.,0.,0.;                                 111P     76
126,1,1,0,0,1,0,-15.45,-15.45,5.15,5.15,1.,1.,103.,2.,103.,          113P     77
-103.,2.,103.,-15.45,5.15,0.,0.,0.;                                  113P     78
126,1,1,0,0,1,0,0.,0.,0.2,0.2,1.,1.,103.,0.,-103.,103.,2.,-103.,     115P     79
0.,0.2,0.,0.,0.;                                                     115P     80
126,1,1,0,0,1,0,0.,0.,20.6,20.6,1.,1.,103.,0.,-103.,-103.,0.,        117P     81
-103.,0.,20.6,0.,0.,0.;                                              117P     82
126,1,1,0,0,1,0,0.,0.,0.2,0.2,1.,1.,-103.,0.,-103.,-103.,2.,         119P     83
-103.,0.,0.2,0.,0.,0.;                                               119P     84
126,1,1,0,0,1,0,0.,0.,0.2,0.2,1.,1.,103.,0.,103.,103.,2.,103.,       121P     85
0.,0.2,0.,0.,0.;                                                     121P     86
126,1,1,0,0,1,0,0.,0.,20.6,20.6,1.,1.,103.,0.,103.,103.,0.,          123P     87
-103.,0.,20.6,0.,0.,0.;                                              123P     88
126,4,2,0,0,0,0,0.,0.,0.,1.5707963267949,1.5707963267949,            125P     89
3.14159265358979,3.14159265358979,3.14159265358979,1.,               125P     90
0.707106781186554,1.,0.707106781186554,1.,95.6966991411008,5.,       125P     91
94.6966991411009,95.6966991411008,5.,95.6966991411009,               125P     92
94.6966991411008,5.,95.6966991411009,93.6966991411008,5.,            125P     93
95.6966991411009,93.6966991411008,5.,94.6966991411009,0.,            125P     94
3.14159265358979,0.,0.,0.;                                           125P     95
126,4,2,0,0,0,0,3.14159265358979,3.14159265358979,                   127P     96
3.14159265358979,4.71238898038469,4.71238898038469,                  127P     97
6.28318530717959,6.28318530717959,6.28318530717959,1.,               127P     98
0.707106781186554,1.,0.707106781186554,1.,93.6966991411008,5.,       127P     99
94.6966991411009,93.6966991411008,5.,93.6966991411009,               127P    100
94.6966991411008,5.,93.6966991411009,95.6966991411008,5.,            127P    101
93.6966991411009,95.6966991411008,5.,94.6966991411009,               127P    102
3.14159265358979,6.28318530717959,0.,0.,0.;                          127P    103
126,1,1,0,0,1,0,-291.370897654519,-291.370897654519,                 129P    104
-286.370897654519,-286.370897654519,1.,1.,93.6966991411008,          129P    105
5.00000000000004,94.6966991411009,93.6966991411008,                  129P    106
3.5527136788005D-14,94.6966991411009,-291.370897654519,              129P    107
-286.370897654519,0.,0.,0.;                                          129P    108
126,8,2,0,1,0,0,-3.14159265358979,-3.14159265358979,                 131P    109
-3.14159265358979,-1.5707963267949,-1.5707963267949,0.,0.,           131P    110
1.5707963267949,1.5707963267949,3.14159265358979,                    131P    111
3.14159265358979,3.14159265358979,1.,0.707106781186554,1.,           131P    112
0.707106781186554,1.,0.707106781186554,1.,0.707106781186554,1.,      131P    113
93.6966991411008,0.,94.6966991411009,93.6966991411008,0.,            131P    114
95.6966991411009,94.6966991411008,0.,95.6966991411009,               131P    115
95.6966991411008,0.,95.6966991411009,95.6966991411008,0.,            131P    116
94.6966991411009,95.6966991411008,0.,93.6966991411009,               131P    117
94.6966991411008,0.,93.6966991411009,93.6966991411008,0.,            131P    118
93.6966991411009,93.6966991411008,0.,94.6966991411009,               131P    119
-3.14159265358979,3.14159265358979,0.,0.,0.;                         131P    120
126,4,2,0,0,0,0,0.,0.,0.,1.5707963267949,1.5707963267949,            133P    121
3.14159265358979,3.14159265358979,3.14159265358979,1.,               133P    122
0.707106781186554,1.,0.707106781186554,1.,-93.6966991411009,5.,      133P    123
-94.6966991411009,-93.6966991411009,5.,-93.6966991411009,            133P    124
-94.6966991411009,5.,-93.6966991411009,-95.6966991411009,5.,         133P    125
-93.6966991411009,-95.6966991411009,5.,-94.6966991411009,0.,         133P    126
3.14159265358979,0.,0.,0.;                                           133P    127
126,4,2,0,0,0,0,3.14159265358979,3.14159265358979,                   135P    128
3.14159265358979,4.71238898038469,4.71238898038469,                  135P    129
6.28318530717959,6.28318530717959,6.28318530717959,1.,               135P    130
0.707106781186554,1.,0.707106781186554,1.,-95.6966991411009,5.,      135P    131
-94.6966991411009,-95.6966991411009,5.,-95.6966991411009,            135P    132
-94.6966991411009,5.,-95.6966991411009,-93.6966991411009,5.,         135P    133
-95.6966991411009,-93.6966991411009,5.,-94.6966991411009,            135P    134
3.14159265358979,6.28318530717959,0.,0.,0.;                          135P    135
126,1,1,0,0,1,0,-291.370897654519,-291.370897654519,                 137P    136
-286.370897654519,-286.370897654519,1.,1.,-95.6966991411009,         137P    137
5.00000000000004,-94.6966991411009,-95.6966991411009,                137P    138
3.5527136788005D-14,-94.6966991411009,-291.370897654519,             137P    139
-286.370897654519,0.,0.,0.;                                          137P    140
126,8,2,0,1,0,0,-3.14159265358979,-3.14159265358979,                 139P    141
-3.14159265358979,-1.5707963267949,-1.5707963267949,0.,0.,           139P    142
1.5707963267949,1.5707963267949,3.14159265358979,                    139P    143
3.14159265358979,3.14159265358979,1.,0.707106781186554,1.,           139P    144
0.707106781186554,1.,0.707106781186554,1.,0.707106781186554,1.,      139P    145
-95.6966991411009,0.,-94.6966991411009,-95.6966991411009,0.,         139P    146
-93.6966991411009,-94.6966991411009,0.,-93.6966991411009,            139P    147
-93.6966991411009,0.,-93.6966991411009,-93.6966991411009,0.,         139P    148
-94.6966991411009,-93.6966991411009,0.,-95.6966991411009,            139P    149
-94.6966991411009,0.,-95.6966991411009,-95.6966991411009,0.,         139P    150
-95.6966991411009,-95.6966991411009,0.,-94.6966991411009,            139P    151
-3.14159265358979,3.14159265358979,0.,0.,0.;                         139P    152
126,4,2,0,0,0,0,0.,0.,0.,1.5707963267949,1.5707963267949,            141P    153
3.14159265358979,3.14159265358979,3.14159265358979,1.,               141P    154
0.707106781186554,1.,0.707106781186554,1.,-93.6966991411009,5.,      141P    155
94.6966991411008,-93.6966991411009,5.,95.6966991411008,              141P    156
-94.6966991411009,5.,95.6966991411008,-95.6966991411009,5.,          141P    157
95.6966991411008,-95.6966991411009,5.,94.6966991411008,0.,           141P    158
3.14159265358979,0.,0.,0.;                                           141P    159
126,4,2,0,0,0,0,3.14159265358979,3.14159265358979,                   143P    160
3.14159265358979,4.71238898038469,4.71238898038469,                  143P    161
6.28318530717959,6.28318530717959,6.28318530717959,1.,               143P    162
0.707106781186554,1.,0.707106781186554,1.,-95.6966991411009,5.,      143P    163
94.6966991411008,-95.6966991411009,5.,93.6966991411008,              143P    164
-94.6966991411009,5.,93.6966991411008,-93.6966991411009,5.,          143P    165
93.6966991411008,-93.6966991411009,5.,94.6966991411008,              143P    166
3.14159265358979,6.28318530717959,0.,0.,0.;                          143P    167
126,1,1,0,0,1,0,-291.370897654519,-291.370897654519,                 145P    168
-286.370897654519,-286.370897654519,1.,1.,-95.6966991411009,         145P    169
5.00000000000004,94.6966991411008,-95.6966991411009,                 145P    170
3.5527136788005D-14,94.6966991411008,-291.370897654519,              145P    171
-286.370897654519,0.,0.,0.;                                          145P    172
126,8,2,0,1,0,0,-3.14159265358979,-3.14159265358979,                 147P    173
-3.14159265358979,-1.5707963267949,-1.5707963267949,0.,0.,           147P    174
1.5707963267949,1.5707963267949,3.14159265358979,                    147P    175
3.14159265358979,3.14159265358979,1.,0.707106781186554,1.,           147P    176
0.707106781186554,1.,0.707106781186554,1.,0.707106781186554,1.,      147P    177
-95.6966991411009,0.,94.6966991411008,-95.6966991411009,0.,          147P    178
95.6966991411008,-94.6966991411009,0.,95.6966991411008,              147P    179
-93.6966991411009,0.,95.6966991411008,-93.6966991411009,0.,          147P    180
94.6966991411008,-93.6966991411009,0.,93.6966991411008,              147P    181
-94.6966991411009,0.,93.6966991411008,-95.6966991411009,0.,          147P    182
93.6966991411008,-95.6966991411009,0.,94.6966991411008,              147P    183
-3.14159265358979,3.14159265358979,0.,0.,0.;                         147P    184
126,4,2,0,0,0,0,0.,0.,0.,1.5707963267949,1.5707963267949,            149P    185
3.14159265358979,3.14159265358979,3.14159265358979,1.,               149P    186
0.707106781186554,1.,0.707106781186554,1.,95.6966991411009,5.,       149P    187
-94.6966991411009,95.6966991411009,5.,-93.6966991411009,             149P    188
94.6966991411009,5.,-93.6966991411009,93.6966991411009,5.,           149P    189
-93.6966991411009,93.6966991411009,5.,-94.6966991411009,0.,          149P    190
3.14159265358979,0.,0.,0.;                                           149P    191
126,4,2,0,0,0,0,3.14159265358979,3.14159265358979,                   151P    192
3.14159265358979,4.71238898038469,4.71238898038469,                  151P    193
6.28318530717959,6.28318530717959,6.28318530717959,1.,               151P    194
0.707106781186554,1.,0.707106781186554,1.,93.6966991411009,5.,       151P    195
-94.6966991411009,93.6966991411009,5.,-95.6966991411009,             151P    196
94.6966991411009,5.,-95.6966991411009,95.6966991411009,5.,           151P    197
-95.6966991411009,95.6966991411009,5.,-94.6966991411009,             151P    198
3.14159265358979,6.28318530717959,0.,0.,0.;                          151P    199
126,1,1,0,0,1,0,-291.370897654519,-291.370897654519,                 153P    200
-286.370897654519,-286.370897654519,1.,1.,93.6966991411009,          153P    201
5.00000000000004,-94.6966991411009,93.6966991411009,                 153P    202
3.5527136788005D-14,-94.6966991411009,-291.370897654519,             153P    203
-286.370897654519,0.,0.,0.;                                          153P    204
126,8,2,0,1,0,0,-3.14159265358979,-3.14159265358979,                 155P    205
-3.14159265358979,-1.5707963267949,-1.5707963267949,0.,0.,           155P    206
1.5707963267949,1.5707963267949,3.14159265358979,                    155P    207
3.14159265358979,3.14159265358979,1.,0.707106781186554,1.,           155P    208
0.707106781186554,1.,0.707106781186554,1.,0.707106781186554,1.,      155P    209
93.6966991411009,0.,-94.6966991411009,93.6966991411009,0.,           155P    210
-93.6966991411009,94.6966991411009,0.,-93.6966991411009,             155P    211
95.6966991411009,0.,-93.6966991411009,95.6966991411009,0.,           155P    212
-94.6966991411009,95.6966991411009,0.,-95.6966991411009,             155P    213
94.6966991411009,0.,-95.6966991411009,93.6966991411009,0.,           155P    214
-95.6966991411009,93.6966991411009,0.,-94.6966991411009,             155P    215
-3.14159265358979,3.14159265358979,0.,0.,0.;                         155P    216
126,1,1,0,0,1,0,0.,0.,0.2,0.2,1.,1.,-103.,0.,103.,-103.,2.,103.,     157P    217
0.,0.2,0.,0.,0.;                                                     157P    218
126,1,1,0,0,1,0,0.,0.,20.6,20.6,1.,1.,-103.,0.,103.,103.,0.,         159P    219
103.,0.,20.6,0.,0.,0.;                                               159P    220
126,1,1,0,0,1,0,0.,0.,20.6,20.6,1.,1.,-103.,0.,-103.,-103.,0.,       161P    221
103.,0.,20.6,0.,0.,0.;                                               161P    222
128,1,1,1,1,0,0,1,0,0,-0.001,-0.001,20.301,20.301,-0.001,-0.001,     163P    223
0.301,0.301,1.,1.,1.,1.,101.5,5.01,-101.51,101.5,5.01,101.51,        163P    224
101.5,1.99,-101.51,101.5,1.99,101.51,-0.001,20.301,-0.001,0.301;     163P    225
128,1,1,1,1,0,0,1,0,0,-0.001,-0.001,20.301,20.301,-0.001,-0.001,     165P    226
0.301,0.301,1.,1.,1.,1.,101.51,5.01,101.5,-101.51,5.01,101.5,        165P    227
101.51,1.99,101.5,-101.51,1.99,101.5,-0.001,20.301,-0.001,0.301;     165P    228
128,1,1,1,1,0,0,1,0,0,-0.001,-0.001,20.301,20.301,-0.001,-0.001,     167P    229
0.301,0.301,1.,1.,1.,1.,-101.5,5.01,101.51,-101.5,5.01,-101.51,      167P    230
-101.5,1.99,101.51,-101.5,1.99,-101.51,-0.001,20.301,-0.001,         167P    231
0.301;                                                               167P    232
128,1,1,1,1,0,0,1,0,0,-0.001,-0.001,20.301,20.301,-0.001,-0.001,     169P    233
0.301,0.301,1.,1.,1.,1.,-101.51,5.01,-101.5,101.51,5.01,-101.5,      169P    234
-101.51,1.99,-101.5,101.51,1.99,-101.5,-0.001,20.301,-0.001,         169P    235
0.301;                                                               169P    236
128,1,1,1,1,0,0,1,0,0,-10.301,-10.301,10.301,10.301,-10.301,         171P    237
-10.301,10.301,10.301,1.,1.,1.,1.,-103.01,2.,-103.01,-103.01,2.,     171P    238
103.01,103.01,2.,-103.01,103.01,2.,103.01,-10.301,10.301,            171P    239
-10.301,10.301;                                                      171P    240
128,1,1,1,1,0,0,1,0,0,-0.00100000000000178,-0.00100000000000178,     173P    241
20.601,20.601,-0.001,-0.001,0.201,0.201,1.,1.,1.,1.,103.01,          173P    242
-0.01,-103.,-103.01,-0.01,-103.,103.01,2.01,-103.,-103.01,2.01,      173P    243
-103.,-0.00100000000000178,20.601,-0.001,0.201;                      173P    244
128,1,1,1,1,0,0,1,0,0,-0.001,-0.001,20.601,20.601,-0.001,-0.001,     175P    245
0.201,0.201,1.,1.,1.,1.,103.,-0.01,103.01,103.,-0.01,-103.01,        175P    246
103.,2.01,103.01,103.,2.01,-103.01,-0.001,20.601,-0.001,0.201;       175P    247
128,1,8,1,2,0,1,0,0,1,-291.370897654519,-291.370897654519,           177P    248
-286.370897654519,-286.370897654519,-3.14159265358979,               177P    249
-3.14159265358979,-3.14159265358979,-1.5707963267949,                177P    250
-1.5707963267949,0.,0.,1.5707963267949,1.5707963267949,              177P    251
3.14159265358979,3.14159265358979,3.14159265358979,1.,1.,            177P    252
0.707106781186548,0.707106781186548,1.,1.,0.707106781186548,         177P    253
0.707106781186548,1.,1.,0.707106781186548,0.707106781186548,1.,      177P    254
1.,0.707106781186548,0.707106781186548,1.,1.,93.6966991411008,       177P    255
3.5527136788005D-14,94.6966991411009,93.6966991411008,               177P    256
5.00000000000004,94.6966991411009,93.6966991411008,                  177P    257
3.5527136788005D-14,95.6966991411009,93.6966991411008,               177P    258
5.00000000000004,95.6966991411009,94.6966991411008,                  177P    259
3.5527136788005D-14,95.6966991411009,94.6966991411008,               177P    260
5.00000000000004,95.6966991411009,95.6966991411008,                  177P    261
3.5527136788005D-14,95.6966991411009,95.6966991411008,               177P    262
5.00000000000004,95.6966991411009,95.6966991411008,                  177P    263
3.5527136788005D-14,94.6966991411009,95.6966991411008,               177P    264
5.00000000000004,94.6966991411009,95.6966991411008,                  177P    265
3.5527136788005D-14,93.6966991411009,95.6966991411008,               177P    266
5.00000000000004,93.6966991411009,94.6966991411008,                  177P    267
3.5527136788005D-14,93.6966991411009,94.6966991411008,               177P    268
5.00000000000004,93.6966991411009,93.6966991411008,                  177P    269
3.5527136788005D-14,93.6966991411009,93.6966991411008,               177P    270
5.00000000000004,93.6966991411009,93.6966991411008,                  177P    271
3.5527136788005D-14,94.6966991411009,93.6966991411008,               177P    272
5.00000000000004,94.6966991411009,-291.370897654519,                 177P    273
-286.370897654519,-3.14159265358979,3.14159265358979;                177P    274
128,1,8,1,2,0,1,0,0,1,-291.370897654519,-291.370897654519,           179P    275
-286.370897654519,-286.370897654519,-3.14159265358979,               179P    276
-3.14159265358979,-3.14159265358979,-1.5707963267949,                179P    277
-1.5707963267949,0.,0.,1.5707963267949,1.5707963267949,              179P    278
3.14159265358979,3.14159265358979,3.14159265358979,1.,1.,            179P    279
0.707106781186548,0.707106781186548,1.,1.,0.707106781186548,         179P    280
0.707106781186548,1.,1.,0.707106781186548,0.707106781186548,1.,      179P    281
1.,0.707106781186548,0.707106781186548,1.,1.,-95.6966991411009,      179P    282
3.5527136788005D-14,-94.6966991411009,-95.6966991411009,             179P    283
5.00000000000004,-94.6966991411009,-95.6966991411009,                179P    284
3.5527136788005D-14,-93.6966991411009,-95.6966991411009,             179P    285
5.00000000000004,-93.6966991411009,-94.6966991411009,                179P    286
3.5527136788005D-14,-93.6966991411009,-94.6966991411009,             179P    287
5.00000000000004,-93.6966991411009,-93.6966991411009,                179P    288
3.5527136788005D-14,-93.6966991411009,-93.6966991411009,             179P    289
5.00000000000004,-93.6966991411009,-93.6966991411009,                179P    290
3.5527136788005D-14,-94.6966991411009,-93.6966991411009,             179P    291
5.00000000000004,-94.6966991411009,-93.6966991411009,                179P    292
3.5527136788005D-14,-95.6966991411009,-93.6966991411009,             179P    293
5.00000000000004,-95.6966991411009,-94.6966991411009,                179P    294
3.5527136788005D-14,-95.6966991411009,-94.6966991411009,             179P    295
5.00000000000004,-95.6966991411009,-95.6966991411009,                179P    296
3.5527136788005D-14,-95.6966991411009,-95.6966991411009,             179P    297
5.00000000000004,-95.6966991411009,-95.6966991411009,                179P    298
3.5527136788005D-14,-94.6966991411009,-95.6966991411009,             179P    299
5.00000000000004,-94.6966991411009,-291.370897654519,                179P    300
-286.370897654519,-3.14159265358979,3.14159265358979;                179P    301
128,1,8,1,2,0,1,0,0,1,-291.370897654519,-291.370897654519,           181P    302
-286.370897654519,-286.370897654519,-3.14159265358979,               181P    303
-3.14159265358979,-3.14159265358979,-1.5707963267949,                181P    304
-1.5707963267949,0.,0.,1.5707963267949,1.5707963267949,              181P    305
3.14159265358979,3.14159265358979,3.14159265358979,1.,1.,            181P    306
0.707106781186548,0.707106781186548,1.,1.,0.707106781186548,         181P    307
0.707106781186548,1.,1.,0.707106781186548,0.707106781186548,1.,      181P    308
1.,0.707106781186548,0.707106781186548,1.,1.,-95.6966991411009,      181P    309
3.5527136788005D-14,94.6966991411008,-95.6966991411009,              181P    310
5.00000000000004,94.6966991411008,-95.6966991411009,                 181P    311
3.5527136788005D-14,95.6966991411008,-95.6966991411009,              181P    312
5.00000000000004,95.6966991411008,-94.6966991411009,                 181P    313
3.5527136788005D-14,95.6966991411008,-94.6966991411009,              181P    314
5.00000000000004,95.6966991411008,-93.6966991411009,                 181P    315
3.5527136788005D-14,95.6966991411008,-93.6966991411009,              181P    316
5.00000000000004,95.6966991411008,-93.6966991411009,                 181P    317
3.5527136788005D-14,94.6966991411008,-93.6966991411009,              181P    318
5.00000000000004,94.6966991411008,-93.6966991411009,                 181P    319
3.5527136788005D-14,93.6966991411008,-93.6966991411009,              181P    320
5.00000000000004,93.6966991411008,-94.6966991411009,                 181P    321
3.5527136788005D-14,93.6966991411008,-94.6966991411009,              181P    322
5.00000000000004,93.6966991411008,-95.6966991411009,                 181P    323
3.5527136788005D-14,93.6966991411008,-95.6966991411009,              181P    324
5.00000000000004,93.6966991411008,-95.6966991411009,                 181P    325
3.5527136788005D-14,94.6966991411008,-95.6966991411009,              181P    326
5.00000000000004,94.6966991411008,-291.370897654519,                 181P    327
-286.370897654519,-3.14159265358979,3.14159265358979;                181P    328
128,1,8,1,2,0,1,0,0,1,-291.370897654519,-291.370897654519,           183P    329
-286.370897654519,-286.370897654519,-3.14159265358979,               183P    330
-3.14159265358979,-3.14159265358979,-1.5707963267949,                183P    331
-1.5707963267949,0.,0.,1.5707963267949,1.5707963267949,              183P    332
3.14159265358979,3.14159265358979,3.14159265358979,1.,1.,            183P    333
0.707106781186548,0.707106781186548,1.,1.,0.707106781186548,         183P    334
0.707106781186548,1.,1.,0.707106781186548,0.707106781186548,1.,      183P    335
1.,0.707106781186548,0.707106781186548,1.,1.,93.6966991411009,       183P    336
3.5527136788005D-14,-94.6966991411009,93.6966991411009,              183P    337
5.00000000000004,-94.6966991411009,93.6966991411009,                 183P    338
3.5527136788005D-14,-93.6966991411009,93.6966991411009,              183P    339
5.00000000000004,-93.6966991411009,94.6966991411009,                 183P    340
3.5527136788005D-14,-93.6966991411009,94.6966991411009,              183P    341
5.00000000000004,-93.6966991411009,95.6966991411009,                 183P    342
3.5527136788005D-14,-93.6966991411009,95.6966991411009,              183P    343
5.00000000000004,-93.6966991411009,95.6966991411009,                 183P    344
3.5527136788005D-14,-94.6966991411009,95.6966991411009,              183P    345
5.00000000000004,-94.6966991411009,95.6966991411009,                 183P    346
3.5527136788005D-14,-95.6966991411009,95.6966991411009,              183P    347
5.00000000000004,-95.6966991411009,94.6966991411009,                 183P    348
3.5527136788005D-14,-95.6966991411009,94.6966991411009,              183P    349
5.00000000000004,-95.6966991411009,93.6966991411009,                 183P    350
3.5527136788005D-14,-95.6966991411009,93.6966991411009,              183P    351
5.00000000000004,-95.6966991411009,93.6966991411009,                 183P    352
3.5527136788005D-14,-94.6966991411009,93.6966991411009,              183P    353
5.00000000000004,-94.6966991411009,-291.370897654519,                183P    354
-286.370897654519,-3.14159265358979,3.14159265358979;                183P    355
128,1,1,1,1,0,0,1,0,0,-0.001,-0.001,20.601,20.601,-0.001,-0.001,     185P    356
0.201,0.201,1.,1.,1.,1.,-103.01,-0.01,103.,103.01,-0.01,103.,        185P    357
-103.01,2.01,103.,103.01,2.01,103.,-0.001,20.601,-0.001,0.201;       185P    358
128,1,1,1,1,0,0,1,0,0,-0.001,-0.001,20.601,20.601,-0.001,-0.001,     187P    359
0.201,0.201,1.,1.,1.,1.,-103.,-0.01,-103.01,-103.,-0.01,103.01,      187P    360
-103.,2.01,-103.01,-103.,2.01,103.01,-0.001,20.601,-0.001,0.201;     187P    361
128,1,1,1,1,0,0,1,0,0,-10.151,-10.151,10.151,10.151,-10.151,         189P    362
-10.151,10.151,10.151,1.,1.,1.,1.,-101.51,5.,-101.51,-101.51,5.,     189P    363
101.51,101.51,5.,-101.51,101.51,5.,101.51,-10.151,10.151,            189P    364
-10.151,10.151;                                                      189P    365
128,1,1,1,1,0,0,1,0,0,-10.301,-10.301,10.301,10.301,-10.301,         191P    366
-10.301,10.301,10.301,1.,1.,1.,1.,-103.01,0.,103.01,-103.01,0.,      191P    367
-103.01,103.01,0.,103.01,103.01,0.,-103.01,-10.301,10.301,           191P    368
-10.301,10.301;                                                      191P    369
502,28,101.5,5.,101.5,101.5,5.,-101.5,101.5,2.,101.5,101.5,2.,       193P    370
-101.5,-101.5,5.,101.5,-101.5,2.,101.5,-101.5,5.,-101.5,-101.5,      193P    371
2.,-101.5,103.,2.,-103.,103.,2.,103.,-103.,2.,-103.,-103.,2.,        193P    372
103.,103.,0.,-103.,-103.,0.,-103.,103.,0.,103.,95.6966991411008,     193P    373
5.,94.6966991411009,93.6966991411008,5.00000000000004,               193P    374
94.6966991411009,93.6966991411008,0.,94.6966991411009,               193P    375
-93.6966991411009,5.,-94.6966991411009,-95.6966991411009,            193P    376
5.00000000000004,-94.6966991411009,-95.6966991411009,0.,             193P    377
-94.6966991411009,-93.6966991411009,5.,94.6966991411008,             193P    378
-95.6966991411009,5.00000000000004,94.6966991411008,                 193P    379
-95.6966991411009,0.,94.6966991411008,95.6966991411009,5.,           193P    380
-94.6966991411009,93.6966991411009,5.00000000000004,                 193P    381
-94.6966991411009,93.6966991411009,0.,-94.6966991411009,-103.,       193P    382
0.,103.;                                                             193P    383
504,40,83,193,1,193,2,85,193,1,193,3,87,193,3,193,4,89,193,2,        195P    384
193,4,91,193,5,193,1,93,193,5,193,6,95,193,6,193,3,97,193,7,193,     195P    385
5,99,193,7,193,8,101,193,8,193,6,103,193,2,193,7,105,193,4,193,      195P    386
8,107,193,9,193,10,109,193,11,193,9,111,193,12,193,11,113,193,       195P    387
10,193,12,115,193,13,193,9,117,193,13,193,14,119,193,14,193,11,      195P    388
121,193,15,193,10,123,193,15,193,13,125,193,16,193,17,127,193,       195P    389
17,193,16,129,193,17,193,18,131,193,18,193,18,133,193,19,193,20,     195P    390
135,193,20,193,19,137,193,20,193,21,139,193,21,193,21,141,193,       195P    391
22,193,23,143,193,23,193,22,145,193,23,193,24,147,193,24,193,24,     195P    392
149,193,25,193,26,151,193,26,193,25,153,193,26,193,27,155,193,       195P    393
27,193,27,157,193,28,193,12,159,193,28,193,15,161,193,14,193,28;     195P    394
406,1,8HSólido1;                                                    197P    395
314,74.9019607843137,74.9019607843137,74.9019607843137,;             199P    396
S      1G      3D    200P    396                                        T      1
