M48
; DRILL file {KiCad (5.1.9)-1} date 04/05/22 12:31:56
; FORMAT={-:-/ absolute / inch / decimal}
; #@! TF.CreationDate,2022-04-05T12:31:56-03:00
; #@! TF.GenerationSoftware,Kicad,Pcbnew,(5.1.9)-1
; #@! TF.FileFunction,Plated,1,2,PTH
FMAT,2
INCH
T1C0.0315
T2C0.0354
T3C0.0394
T4C0.0433
T5C0.0469
T6C0.0551
%
G90
G05
T1
X2.2Y-1.68
X2.2Y-2.08
X2.2Y-2.72
X2.2Y-2.86
X2.2Y-3.0
X2.2Y-3.14
X2.2Y-3.28
X2.2Y-3.42
X2.2Y-3.56
X2.2Y-3.7
X2.2Y-3.92
X2.2Y-4.06
X2.2Y-4.2
X2.2Y-4.34
X2.2Y-4.48
X2.2Y-4.62
X2.2Y-4.76
X2.2Y-4.9
X2.2Y-5.12
X2.2Y-5.26
X2.2Y-5.4
X2.2Y-5.54
X2.2Y-5.68
X2.2Y-5.82
X2.2Y-5.96
X2.2Y-6.0975
X2.2Y-6.32
X2.2Y-6.46
X2.2Y-6.6
X2.2Y-6.74
X2.2Y-6.88
X2.2Y-7.02
X2.2Y-7.16
X2.2Y-7.3
X2.22Y-2.2431
X2.22Y-2.44
X2.38Y-1.52
X2.38Y-1.92
X2.6Y-2.72
X2.6Y-2.86
X2.6Y-3.0
X2.6Y-3.14
X2.6Y-3.28
X2.6Y-3.42
X2.6Y-3.56
X2.6Y-3.7
X2.6Y-3.92
X2.6Y-4.06
X2.6Y-4.2
X2.6Y-4.34
X2.6Y-4.48
X2.6Y-4.62
X2.6Y-4.76
X2.6Y-4.9
X2.6Y-5.12
X2.6Y-5.26
X2.6Y-5.4
X2.6Y-5.54
X2.6Y-5.68
X2.6Y-5.82
X2.6Y-5.96
X2.6Y-6.0975
X2.6Y-6.32
X2.6Y-6.46
X2.6Y-6.6
X2.6Y-6.74
X2.6Y-6.88
X2.6Y-7.02
X2.6Y-7.16
X2.6Y-7.3
X2.84Y-2.86
X2.84Y-2.96
X2.84Y-3.06
X2.84Y-3.16
X2.84Y-3.26
X2.84Y-3.36
X2.84Y-3.46
X2.84Y-3.56
X2.84Y-4.06
X2.84Y-4.16
X2.84Y-4.26
X2.84Y-4.36
X2.84Y-4.46
X2.84Y-4.56
X2.84Y-4.66
X2.84Y-4.76
X2.84Y-5.26
X2.84Y-5.36
X2.84Y-5.46
X2.84Y-5.56
X2.84Y-5.66
X2.84Y-5.76
X2.84Y-5.86
X2.84Y-5.96
X2.84Y-6.46
X2.84Y-6.56
X2.84Y-6.66
X2.84Y-6.76
X2.84Y-6.86
X2.84Y-6.96
X2.84Y-7.06
X2.84Y-7.16
X3.14Y-2.86
X3.14Y-2.96
X3.14Y-3.06
X3.14Y-3.16
X3.14Y-3.26
X3.14Y-3.36
X3.14Y-3.46
X3.14Y-3.56
X3.14Y-4.06
X3.14Y-4.16
X3.14Y-4.26
X3.14Y-4.36
X3.14Y-4.46
X3.14Y-4.56
X3.14Y-4.66
X3.14Y-4.76
X3.14Y-5.26
X3.14Y-5.36
X3.14Y-5.46
X3.14Y-5.56
X3.14Y-5.66
X3.14Y-5.76
X3.14Y-5.86
X3.14Y-5.96
X3.14Y-6.46
X3.14Y-6.56
X3.14Y-6.66
X3.14Y-6.76
X3.14Y-6.86
X3.14Y-6.96
X3.14Y-7.06
X3.14Y-7.16
X3.92Y-2.86
X3.92Y-2.96
X3.92Y-3.06
X3.92Y-3.16
X3.92Y-3.26
X3.92Y-3.36
X3.92Y-3.46
X3.92Y-3.56
X3.92Y-4.06
X3.92Y-4.16
X3.92Y-4.26
X3.92Y-4.36
X3.92Y-4.46
X3.92Y-4.56
X3.92Y-4.66
X3.92Y-4.76
X3.92Y-5.26
X3.92Y-5.36
X3.92Y-5.46
X3.92Y-5.56
X3.92Y-5.66
X3.92Y-5.76
X3.92Y-5.86
X3.92Y-5.96
X3.92Y-6.46
X3.92Y-6.56
X3.92Y-6.66
X3.92Y-6.76
X3.92Y-6.86
X3.92Y-6.96
X3.92Y-7.06
X3.92Y-7.16
X4.22Y-2.86
X4.22Y-2.96
X4.22Y-3.06
X4.22Y-3.16
X4.22Y-3.26
X4.22Y-3.36
X4.22Y-3.46
X4.22Y-3.56
X4.22Y-4.06
X4.22Y-4.16
X4.22Y-4.26
X4.22Y-4.36
X4.22Y-4.46
X4.22Y-4.56
X4.22Y-4.66
X4.22Y-4.76
X4.22Y-5.26
X4.22Y-5.36
X4.22Y-5.46
X4.22Y-5.56
X4.22Y-5.66
X4.22Y-5.76
X4.22Y-5.86
X4.22Y-5.96
X4.22Y-6.46
X4.22Y-6.56
X4.22Y-6.66
X4.22Y-6.76
X4.22Y-6.86
X4.22Y-6.96
X4.22Y-7.06
X4.22Y-7.16
X4.46Y-2.72
X4.46Y-2.86
X4.46Y-3.0
X4.46Y-3.14
X4.46Y-3.28
X4.46Y-3.42
X4.46Y-3.56
X4.46Y-3.7
X4.46Y-3.92
X4.46Y-4.06
X4.46Y-4.2
X4.46Y-4.34
X4.46Y-4.48
X4.46Y-4.62
X4.46Y-4.76
X4.46Y-4.9
X4.46Y-5.12
X4.46Y-5.26
X4.46Y-5.4
X4.46Y-5.54
X4.46Y-5.68
X4.46Y-5.82
X4.46Y-5.96
X4.46Y-6.1
X4.46Y-6.32
X4.46Y-6.46
X4.46Y-6.6
X4.46Y-6.74
X4.46Y-6.88
X4.46Y-7.02
X4.46Y-7.16
X4.46Y-7.3
X4.86Y-2.72
X4.86Y-2.86
X4.86Y-3.0
X4.86Y-3.14
X4.86Y-3.28
X4.86Y-3.42
X4.86Y-3.56
X4.86Y-3.7
X4.86Y-3.92
X4.86Y-4.06
X4.86Y-4.2
X4.86Y-4.34
X4.86Y-4.48
X4.86Y-4.62
X4.86Y-4.76
X4.86Y-4.9
X4.86Y-5.12
X4.86Y-5.26
X4.86Y-5.4
X4.86Y-5.54
X4.86Y-5.68
X4.86Y-5.82
X4.86Y-5.96
X4.86Y-6.1
X4.86Y-6.32
X4.86Y-6.46
X4.86Y-6.6
X4.86Y-6.74
X4.86Y-6.88
X4.86Y-7.02
X4.86Y-7.16
X4.86Y-7.3
X5.12Y-1.62
X5.12Y-1.72
X5.12Y-1.82
X5.12Y-1.92
X5.12Y-2.02
X5.12Y-2.12
X5.12Y-2.22
X5.12Y-2.32
X5.42Y-1.62
X5.42Y-1.72
X5.42Y-1.82
X5.42Y-1.92
X5.42Y-2.02
X5.42Y-2.12
X5.42Y-2.22
X5.42Y-2.32
T2
X1.82Y-1.46
X1.82Y-1.68
X1.92Y-1.46
X1.92Y-1.68
T3
X2.58Y-1.92
X2.58Y-2.08
X2.7425Y-1.6775
X2.7425Y-2.2775
X2.8425Y-1.6775
X2.8425Y-2.2775
X2.94Y-3.74
X2.94Y-4.94
X2.94Y-6.14
X2.9425Y-1.6775
X2.9425Y-2.2775
X3.04Y-1.92
X3.04Y-2.08
X3.0425Y-1.6775
X3.0425Y-2.2775
X3.1425Y-1.6775
X3.1425Y-2.2775
X3.2425Y-1.6775
X3.2425Y-2.2775
X3.26Y-4.94
X3.26Y-6.14
X3.28Y-3.74
X3.34Y-3.26
X3.34Y-3.6
X3.34Y-5.96
X3.34Y-6.86
X3.3425Y-1.6775
X3.3425Y-2.2775
X3.36Y-2.62
X3.36Y-4.46
X3.36Y-5.66
X3.4425Y-1.6775
X3.4425Y-2.2775
X3.5425Y-1.6775
X3.5425Y-2.2775
X3.58Y-3.98
X3.58Y-4.22
X3.58Y-4.46
X3.58Y-5.18
X3.58Y-5.44
X3.58Y-5.66
X3.58Y-6.4
X3.58Y-6.66
X3.58Y-6.86
X3.6Y-3.26
X3.6425Y-1.6775
X3.6425Y-2.2775
X3.7Y-1.44
X3.7Y-3.6
X3.7Y-5.96
X3.72Y-2.6175
X3.7425Y-1.6775
X3.7425Y-2.2775
X3.8Y-3.9
X3.82Y-6.28
X3.8425Y-1.6775
X3.8425Y-2.2775
X3.9425Y-1.6775
X3.9425Y-2.2775
X4.0425Y-1.6775
X4.0425Y-2.2775
X4.1Y-1.44
X4.12Y-6.28
X4.14Y-3.9
X4.1425Y-1.6775
X4.1425Y-2.2775
X4.2425Y-1.6775
X4.2425Y-2.2775
X4.3425Y-1.6775
X4.3425Y-2.2775
X4.4425Y-1.6775
X4.4425Y-2.2775
X4.54Y-2.56
X4.5425Y-1.6775
X4.5425Y-2.2775
X4.6425Y-1.6775
X4.6425Y-2.2775
X4.84Y-2.56
X5.26Y-2.16
X5.26Y-2.48
X6.5Y-1.56
X6.5Y-2.3
X6.5Y-3.04
X6.5Y-3.78
X6.5Y-4.56
X6.5Y-5.34
X6.5Y-6.16
X6.5Y-6.88
T4
X6.06Y-1.46
X6.06Y-1.56
X6.06Y-1.66
X6.06Y-2.2
X6.06Y-2.3
X6.06Y-2.4
X6.06Y-2.94
X6.06Y-3.04
X6.06Y-3.14
X6.06Y-3.68
X6.06Y-3.78
X6.06Y-3.88
X6.06Y-4.46
X6.06Y-4.56
X6.06Y-4.66
X6.06Y-5.24
X6.06Y-5.34
X6.06Y-5.44
X6.06Y-6.06
X6.06Y-6.16
X6.06Y-6.26
X6.06Y-6.78
X6.06Y-6.88
X6.06Y-6.98
X10.1Y-2.12
X10.1Y-2.2972
X10.1Y-2.54
X10.1Y-2.7172
X10.1Y-2.98
X10.1Y-3.1572
X10.1Y-3.44
X10.1Y-3.6172
X10.3559Y-2.12
X10.3559Y-2.2972
X10.3559Y-2.54
X10.3559Y-2.7172
X10.3559Y-2.98
X10.3559Y-3.1572
X10.3559Y-3.44
X10.3559Y-3.6172
T5
X1.84Y-2.86
X1.84Y-2.96
X1.84Y-3.06
X1.84Y-3.16
X1.84Y-3.26
X1.84Y-3.36
X1.84Y-3.46
X1.84Y-3.56
X1.84Y-4.06
X1.84Y-4.16
X1.84Y-4.26
X1.84Y-4.36
X1.84Y-4.46
X1.84Y-4.56
X1.84Y-4.66
X1.84Y-4.76
X1.84Y-5.26
X1.84Y-5.36
X1.84Y-5.46
X1.84Y-5.56
X1.84Y-5.66
X1.84Y-5.76
X1.84Y-5.86
X1.84Y-5.96
X1.8675Y-6.46
X1.8675Y-6.56
X1.8675Y-6.66
X1.8675Y-6.76
X1.8675Y-6.86
X1.8675Y-6.96
X1.8675Y-7.06
X1.8675Y-7.16
X3.02Y-1.18
X3.12Y-1.18
X3.22Y-1.18
X3.32Y-1.18
X3.64Y-1.18
X3.74Y-1.18
X3.84Y-1.18
X3.94Y-1.18
X4.24Y-1.18
X4.34Y-1.18
X4.44Y-1.18
X4.54Y-1.18
X4.64Y-1.18
X5.2Y-2.86
X5.2Y-2.96
X5.2Y-3.06
X5.2Y-3.16
X5.2Y-3.26
X5.2Y-3.36
X5.2Y-3.46
X5.2Y-3.56
X5.2Y-4.06
X5.2Y-4.16
X5.2Y-4.26
X5.2Y-4.36
X5.2Y-4.46
X5.2Y-4.56
X5.2Y-4.66
X5.2Y-4.76
X5.2Y-5.26
X5.2Y-5.36
X5.2Y-5.46
X5.2Y-5.56
X5.2Y-5.66
X5.2Y-5.76
X5.2Y-5.86
X5.2Y-5.96
X5.2Y-6.46
X5.2Y-6.56
X5.2Y-6.66
X5.2Y-6.76
X5.2Y-6.86
X5.2Y-6.96
X5.2Y-7.06
X5.2Y-7.16
X9.48Y-2.64
X9.48Y-2.74
X9.48Y-2.84
X9.48Y-2.94
X9.48Y-3.04
T6
X1.78Y-2.2
X1.78Y-2.3969
T0
M30
